<svg width="360" height="160" viewBox="0 0 360 160" fill="none" xmlns="http://www.w3.org/2000/svg">
<path d="M-292.914 143.864L-265.412 148.106C-237.924 152.125 -182.898 160.946 -129.833 139.365C-76.7459 118.12 -25.619 66.4731 27.6631 48.2515C80.9307 29.806 136.317 44.2256 191.513 55.6778C246.694 66.906 301.719 75.7267 356.131 75.0295C410.543 74.3322 464.414 65.2367 491.324 60.2971L518.248 55.5813L512.472 -33.9999L485.356 -32.2515C458.241 -30.5032 404.009 -27.0065 349.778 -23.5099C295.546 -20.0132 241.315 -16.5165 187.083 -13.0199C132.852 -9.52318 78.6203 -6.02651 24.3889 -2.52984C-29.8426 0.966836 -84.0741 4.46351 -138.306 7.96018C-192.537 11.4569 -246.769 14.9535 -273.884 16.7019L-301 18.4502L-292.914 143.864Z" fill="url(#paint0_linear_167_63)"/>
<defs>
<linearGradient id="paint0_linear_167_63" x1="94.891" y1="11.7766" x2="320.961" y2="7.9791" gradientUnits="userSpaceOnUse">
<stop offset="0.0625" stop-color="#C9E9E3"/>
<stop offset="0.0626" stop-color="#C9E9E3"/>
<stop offset="1" stop-color="#93DCD0"/>
</linearGradient>
</defs>
</svg>
